<svg id="圖層_1" data-name="圖層 1" xmlns="http://www.w3.org/2000/svg" xmlns:xlink="http://www.w3.org/1999/xlink" viewBox="0 0 1972 700"><defs><style>.cls-1{fill:none;}.cls-2{fill:url(#未命名漸層_43);}.cls-3{fill:#fff;}</style><linearGradient id="未命名漸層_43" x1="149.41" y1="548.85" x2="562.55" y2="135.71" gradientUnits="userSpaceOnUse"><stop offset="0" stop-color="#f7931e"/><stop offset="0.64" stop-color="#f04422"/><stop offset="1" stop-color="#ed1c24"/></linearGradient></defs><rect class="cls-1" width="1972" height="700"/><path class="cls-2" d="M139.6,319.58C197.47,222.47,265.88,204.1,265.88,204.1S160.65,275,147.5,387.82s78.94,171.42,194.66,144.34C505,494.06,578.94,357.65,578.94,357.65s-29.49,114.92-142.07,195C319.81,635.87,196.18,592.88,149.59,549c-45.66-43.05-67.86-132.27-10-229.38m394.56,23.49C401.6,470,222.76,473.89,222.76,473.89l103.79-280.7L454.8,313.45a335.9,335.9,0,0,0,33.76-28.28c42.91-40.92,83.79-120.42-17.24-149.21-114.72-32.71-232.17,24.53-232.17,24.53C278.4,124,363.75,100,438.48,100c32.58,0,63.15,4.57,87,14.66C576.3,136.18,670.74,212.26,534.16,343.07ZM401,346.7,343,291.29,310.89,382C353.36,369.06,380.4,357.51,401,346.7Z"/><path class="cls-3" d="M785.09,206.46h-20L565.35,514.74h38.41l62.65-96.42H782.09l27.18,96.42h63.26ZM773,386.86H686.49L746.73,294ZM997,244.28,981,335.1h101.78l-5.5,31.23H975.51L954.85,483.52h152.31l-5.5,31.22H888.09l53.19-301.68h213.58l-5.52,31.22Z"/><path class="cls-3" d="M1340.3,432.26l-6.59,37.17h84.52l12.26-16.88h52.86l-36.7,62.25h-173.8l14.59-82.54H1155.78l37.66-208.07,131.66,1.26,3.35-19h52.86l-3.35,19h131.9l-36.47,206.81Zm-44.67-46.42,6.08-34.48H1222.9l-6.08,34.48Zm-57.52-115.23-7,34.33h78.81l7-33.06Zm190.62,115.23,6.08-34.48h-80.24l-6.08,34.48Zm-60.15-114-5.83,33.06H1443l5.83-33.06Z"/><path class="cls-3" d="M1527.9,370.83l8.43-47.83,143.74.13,81.68-62.19h-205l8.43-47.83h307.14l-4.1,23.22-112.44,86.8,103.4-.13-8.43,47.83h-68.57l-25.36,143.85H1542.54l8.24-46.78h160l17.12-97.07Z"/></svg>