<svg id="圖層_1" data-name="圖層 1" xmlns="http://www.w3.org/2000/svg" xmlns:xlink="http://www.w3.org/1999/xlink" viewBox="0 0 1972 700"><defs><style>.cls-1{fill:none;}.cls-2{fill:url(#未命名漸層_43);}.cls-3{fill:#fff;}</style><linearGradient id="未命名漸層_43" x1="149.41" y1="548.85" x2="562.55" y2="135.71" gradientUnits="userSpaceOnUse"><stop offset="0" stop-color="#f7931e"/><stop offset="0.64" stop-color="#f04422"/><stop offset="1" stop-color="#ed1c24"/></linearGradient></defs><rect class="cls-1" width="1972" height="700"/><path class="cls-2" d="M139.6,319.58C197.47,222.47,265.88,204.1,265.88,204.1S160.65,275,147.5,387.82s78.94,171.42,194.66,144.34C505,494.06,578.94,357.65,578.94,357.65s-29.49,114.92-142.07,195C319.81,635.87,196.18,592.88,149.59,549c-45.66-43.05-67.86-132.27-10-229.38m394.56,23.49C401.6,470,222.76,473.89,222.76,473.89l103.79-280.7L454.8,313.45a335.9,335.9,0,0,0,33.76-28.28c42.91-40.92,83.79-120.42-17.24-149.21-114.72-32.71-232.17,24.53-232.17,24.53C278.4,124,363.75,100,438.48,100c32.58,0,63.15,4.57,87,14.66C576.3,136.18,670.74,212.26,534.16,343.07ZM401,346.7,343,291.29,310.89,382C353.36,369.06,380.4,357.51,401,346.7Z"/><path class="cls-3" d="M785.09,206.46h-20L565.35,514.74h38.41l62.65-96.42H782.09l27.18,96.42h63.26ZM773,386.86H686.49L746.73,294ZM997,244.28,981,335.1h101.78l-5.5,31.23H975.51L954.85,483.52h152.31l-5.5,31.22H888.09l53.19-301.68h213.58l-5.52,31.22Z"/><polygon class="cls-3" points="1729.83 460.14 1759.87 514.64 1820.68 514.64 1790.64 460.14 1729.83 460.14"/><polygon class="cls-3" points="1544.55 460.14 1489.33 514.64 1547.09 514.65 1602.32 460.14 1544.55 460.14"/><polygon class="cls-3" points="1536.46 362.22 1529.76 400.26 1828.44 400.26 1835.15 362.22 1536.46 362.22"/><polygon class="cls-3" points="1512.02 448.88 1647.98 448.88 1644.13 470.71 1603.28 470.71 1595.51 514.74 1688.5 514.74 1700.11 448.88 1830.44 448.88 1837.14 410.83 1518.73 410.83 1512.02 448.88"/><path class="cls-3" d="M1865,253l7.08-40.15H1553.64L1546.56,253h90.17l-2,11.28h-84.53l-15.41,87.35h305.73l15.41-87.35h-87.35l2-11.28Zm-238.92,60.59h-35.23l2-11.27H1628Zm84.53,0h-35.22l2-11.27h35.23Zm8.7-49.31h-35.23l2-11.28h35.22Zm80.64,38-2,11.27h-38l2-11.27Z"/><path class="cls-3" d="M1190.64,422.81l-35.78,91.83h50l35.78-91.83Zm60.2-93.69-10.21-62h-50.72l10.2,62Zm14.79,0h51.42l-10.2-62h-51.42ZM1416,207.25l-215.15,5.63-7.69,43.68,215.14-5.64Zm-92.64,121.87h49.32l36.79-64.81h-50.72Zm-20.74,93.69,9.28,91.83h50l-9.29-91.83Zm114.63-150.75-9.81,55.65,106.7-59,9.81-55.65Zm-26.2,148.63,106.69-59,9.82-55.66-106.7,59Zm-16.59,94.05,106.88-60,10.06-57.06-107.06,61.08Zm13.06-153.93h-78.9l3.47-19.72H1260l-3.47,19.72h-80.31l-8,45.09h80.31l-19.19,108.84h52.13L1300.7,405.9h78.9Z"/></svg>